<svg width="20" height="20" viewBox="0 0 20 20" fill="none" xmlns="http://www.w3.org/2000/svg">
<path d="M9.99902 0C4.49902 0 -0.000976562 4.5 -0.000976562 10C-0.000976562 15.5 4.49902 20 9.99902 20C15.499 20 19.999 15.5 19.999 10C19.999 4.5 15.499 0 9.99902 0ZM15.124 13C15.249 12 15.374 11 15.374 10C15.374 9 15.249 8 15.124 7C17.249 7.75 18.499 8.875 18.499 10C18.499 11.125 17.124 12.25 15.124 13ZM1.49902 10C1.49902 8.875 2.74902 7.75 4.87402 7C4.74902 8 4.62402 9 4.62402 10C4.62402 11 4.74902 12 4.87402 13C2.74902 12.25 1.49902 11.125 1.49902 10ZM6.49902 2.25C5.87402 3.125 5.49902 4.125 5.24902 5.25C4.24902 5.5 3.24902 6 2.24902 6.5C3.12402 4.625 4.62402 3.125 6.49902 2.25ZM2.24902 13.5C3.24902 14.125 4.37402 14.625 5.62402 14.875H5.74902C7.12402 15.25 8.62402 15.375 9.99902 15.375C10.499 15.375 10.874 15.375 11.374 15.375C11.749 15.375 12.124 15 12.124 14.5C11.999 14.125 11.624 13.75 11.249 13.75C10.874 13.75 10.374 13.75 9.99902 13.75C8.87402 13.75 7.62402 13.625 6.49902 13.375C6.24902 12.375 6.12402 11.125 6.12402 10C6.12402 5 8.12402 1.5 9.99902 1.5C10.749 1.5 11.499 2.125 12.249 3.125C12.374 3.375 12.624 3.5 12.874 3.5C12.999 3.5 13.124 3.5 13.249 3.375C13.624 3.125 13.749 2.625 13.499 2.375C13.499 2.375 13.499 2.375 13.499 2.25C15.374 3.125 16.874 4.625 17.749 6.5C16.624 5.875 15.499 5.375 14.249 5.125C12.874 4.75 11.374 4.625 9.99902 4.625C9.49902 4.625 9.12402 4.625 8.62402 4.625C8.24902 4.75 7.87402 5 7.87402 5.5C7.99902 5.875 8.37402 6.25 8.74902 6.25C9.12402 6.25 9.62402 6.25 9.99902 6.25C11.124 6.25 12.374 6.375 13.499 6.625C13.749 7.625 13.874 8.875 13.874 10C13.874 15 11.874 18.5 9.99902 18.5C9.24902 18.5 8.49902 17.875 7.74902 16.875C7.49902 16.5 7.12402 16.375 6.74902 16.5C6.37402 16.75 6.24902 17.125 6.37402 17.5V17.625C6.37402 17.625 6.37402 17.625 6.37402 17.75C4.62402 16.875 3.12402 15.375 2.24902 13.5ZM13.499 17.75C14.124 16.875 14.499 15.875 14.749 14.75C15.749 14.5 16.749 14 17.749 13.5C16.874 15.375 15.374 16.875 13.499 17.75Z" fill="white"/>
</svg>
