<svg width="23" height="20" viewBox="0 0 23 20" fill="none" xmlns="http://www.w3.org/2000/svg">
<path d="M22.2177 0.445682C21.7163 0.0445682 20.914 -0.155989 20.3124 0.144847L0.958611 7.96657C0.156382 8.26741 -0.244732 9.16992 0.156383 9.97214C0.35694 10.3733 0.657775 10.6741 0.958611 10.7744L2.16195 11.2758C2.56307 11.4763 3.06446 11.2758 3.26502 10.8747C3.46557 10.4735 3.26502 9.97215 2.76362 9.77159L1.9614 9.37047L20.914 1.7493C21.0143 1.7493 21.0143 1.7493 21.1146 1.7493C21.2149 1.7493 21.2149 1.84958 21.2149 1.94986L17.8054 18.0947C17.8054 18.195 17.7051 18.2953 17.6049 18.3955C17.5046 18.3955 17.4043 18.3955 17.304 18.2953L10.4851 13.0808L17.1035 6.36212C17.4043 6.06128 17.4043 5.45961 17.1035 5.15877C16.8026 4.85794 16.4015 4.85794 16.1007 5.0585L6.37365 10.7744C5.97254 10.9749 5.77198 11.4763 5.97254 11.8774C6.1731 12.2786 6.67449 12.4791 7.0756 12.2786C7.17588 12.2786 7.17588 12.1783 7.17588 12.1783L11.2873 9.77159L9.28173 11.7772C8.57978 12.3788 8.57978 13.4819 9.18145 14.1838C9.28173 14.2841 9.38201 14.2841 9.38201 14.3844L16.1007 19.5989C16.5018 19.8997 16.9029 20 17.304 20C17.5046 20 17.8054 20 18.006 19.8997C18.7079 19.6992 19.109 19.0975 19.3096 18.3955L22.7191 2.2507C23.0199 1.64903 22.8193 0.947075 22.2177 0.445682Z" fill="white"/>
</svg>
