<svg width="30" height="30" viewBox="0 0 30 30" fill="none" xmlns="http://www.w3.org/2000/svg">
<path fill-rule="evenodd" clip-rule="evenodd" d="M30 15C30 23.2875 23.2875 30 15 30C6.7125 30 0 23.2875 0 15C0 6.7125 6.7125 0 15 0C23.2875 0 30 6.7125 30 15ZM23.75 15C23.75 19.8375 19.8375 23.75 15 23.75C10.1625 23.75 6.25 19.8375 6.25 15C6.25 10.1625 10.1625 6.25 15 6.25C19.8375 6.25 23.75 10.1625 23.75 15ZM13.4375 12.1875C12.75 12.1875 12.1875 12.75 12.1875 13.4375V16.5625C12.1875 17.25 12.75 17.8125 13.4375 17.8125H16.5625C17.25 17.8125 17.8125 17.25 17.8125 16.5625V13.4375C17.8125 12.75 17.25 12.1875 16.5625 12.1875H13.4375Z" fill="#2D65F8"/>
</svg>
