<svg width="36" height="22" viewBox="0 0 36 22" fill="none" xmlns="http://www.w3.org/2000/svg">
<g clip-path="url(#clip0_1541_1369)">
<path d="M7.34841 4.29918C13.2021 -1.43241 22.6929 -1.43241 28.5465 4.29918L29.2515 4.98855C29.5447 5.27459 29.5447 5.74015 29.2515 6.02619L26.8411 8.38633C26.6951 8.52995 26.4569 8.52995 26.3109 8.38633L25.3414 7.43725C21.2579 3.43866 14.6371 3.43866 10.5523 7.43725L9.51347 8.45335C9.36745 8.59697 9.12929 8.59697 8.98327 8.45335L6.57527 6.09322C6.28204 5.80717 6.28204 5.34161 6.57527 5.05557L7.34841 4.29918ZM33.5313 9.17863L35.676 11.279C35.9692 11.5651 35.9692 12.0307 35.676 12.3167L26.0045 21.786C25.7113 22.072 25.2373 22.072 24.9441 21.786L18.0803 15.0658C18.0073 14.994 17.8888 14.994 17.8158 15.0658L10.9509 21.786C10.6576 22.072 10.1837 22.072 9.89047 21.786L0.21894 12.3167C-0.074282 12.0307 -0.074282 11.5651 0.21894 11.279L2.36365 9.17863C2.65687 8.89258 3.13081 8.89258 3.42403 9.17863L10.2878 15.9C10.3608 15.9718 10.4793 15.9718 10.5523 15.9L17.4161 9.17863C17.7093 8.89258 18.1833 8.89258 18.4765 9.17863L25.3403 15.9C25.4133 15.9718 25.5317 15.9718 25.6048 15.9L32.4685 9.17982C32.7641 8.89258 33.2381 8.89258 33.5313 9.17863Z" fill="#3B99FC"/>
</g>
<defs>
<clipPath id="clip0_1541_1369">
<rect width="35.8951" height="22" fill="white"/>
</clipPath>
</defs>
</svg>
