<svg width="26" height="30" viewBox="0 0 26 30" fill="none" xmlns="http://www.w3.org/2000/svg">
<g clip-path="url(#clip0_1541_1363)">
<path d="M12.9653 1.40422L13.6623 0.510602C13.2441 0.191453 12.6864 0.191453 12.3379 0.510602L12.9653 1.40422ZM24.5363 4.85103H25.6516C25.6516 4.21273 25.1636 3.76592 24.5363 3.70209V4.85103ZM12.9653 28.5957L12.3379 29.4893C12.6864 29.7446 13.1744 29.7446 13.5926 29.4893L12.9653 28.5957ZM1.46391 4.85103V3.70209C0.836568 3.70209 0.348633 4.21273 0.348633 4.7872L1.46391 4.85103ZM12.3379 2.29784C17.3567 6.19145 23.0725 5.93613 24.5363 5.93613V3.70209C23.0028 3.70209 17.984 3.89358 13.6623 0.510602L12.3379 2.29784ZM23.421 4.85103C23.3513 10.0212 23.1422 13.6595 22.724 16.3404C22.3057 19.0212 21.7481 20.617 20.9813 21.7021C20.2146 22.851 19.2387 23.5532 17.8446 24.3829C16.3808 25.2766 14.6382 26.1702 12.4076 27.6383L13.6623 29.4893C15.7535 28.0851 17.5658 27.1915 19.0296 26.2978C20.5631 25.4042 21.8875 24.3829 22.8634 22.9149C23.8392 21.3829 24.5363 19.468 24.9545 16.6595C25.3728 13.851 25.5819 10.0851 25.7213 4.91486L23.421 4.85103ZM13.5926 27.6383C11.362 26.1702 9.5497 25.2127 8.1556 24.3829C6.7615 23.5532 5.78563 22.851 5.01887 21.7021C4.25212 20.5532 3.69448 19.0212 3.27625 16.3404C2.85802 13.6595 2.6489 10.0212 2.5792 4.85103H0.348633C0.418338 10.0851 0.697158 13.851 1.11539 16.6595C1.53362 19.468 2.23067 21.4468 3.20654 22.9149C4.18241 24.3829 5.50681 25.4042 7.04032 26.2978C8.50413 27.1915 10.3165 28.0851 12.4076 29.4893L13.5926 27.6383ZM1.46391 5.93613C2.92772 5.93613 8.64354 6.19145 13.6623 2.29784L12.3379 0.574432C8.01619 3.95741 2.99743 3.76592 1.46391 3.76592V5.93613Z" fill="#0B65C6" stroke="#0B65C6" stroke-miterlimit="10"/>
</g>
<defs>
<clipPath id="clip0_1541_1363">
<rect width="26" height="30" fill="white"/>
</clipPath>
</defs>
</svg>
