<svg width="20" height="20" viewBox="0 0 20 20" fill="none" xmlns="http://www.w3.org/2000/svg">
<path d="M7.18977 4.35001C5.14977 6.64001 3.74977 9.93 3.61977 10.24L1.35977 9.27001C0.709772 8.99001 0.549772 8.14001 1.04977 7.64001L4.05977 4.63001C4.52977 4.16001 5.20977 3.95001 5.86977 4.08001L7.18977 4.35001ZM8.67977 14.51C8.97977 14.81 9.41977 14.89 9.79977 14.71C10.9598 14.17 13.4498 12.9 15.0598 11.29C19.6498 6.7 19.6898 2.96001 19.4198 1.36001C19.3844 1.16347 19.2897 0.982457 19.1485 0.841251C19.0073 0.700044 18.8263 0.605396 18.6298 0.570005C17.0298 0.300005 13.2898 0.340005 8.69977 4.93001C7.08977 6.54001 5.82977 9.03 5.27977 10.19C5.09977 10.57 5.18977 11.02 5.47977 11.31L8.67977 14.51ZM15.6498 12.81C13.3598 14.85 10.0698 16.25 9.75977 16.38L10.7298 18.64C11.0098 19.29 11.8598 19.45 12.3598 18.95L15.3698 15.94C15.8398 15.47 16.0498 14.79 15.9198 14.13L15.6498 12.81ZM6.93977 15.41C7.03674 15.8943 7.01263 16.3951 6.86959 16.8678C6.72654 17.3406 6.46898 17.7707 6.11977 18.12C5.34977 18.89 2.95977 19.46 1.40977 19.76C0.719772 19.89 0.109772 19.28 0.239772 18.59C0.539772 17.04 1.09977 14.65 1.87977 13.88C2.22908 13.5308 2.6592 13.2732 3.13195 13.1302C3.6047 12.9871 4.10546 12.963 4.58977 13.06C5.75977 13.28 6.71977 14.24 6.93977 15.41ZM10.9998 7.00001C10.9998 5.90001 11.8998 5.00001 12.9998 5.00001C14.0998 5.00001 14.9998 5.90001 14.9998 7.00001C14.9998 8.10001 14.0998 9 12.9998 9C11.8998 9 10.9998 8.10001 10.9998 7.00001Z" fill="#DBDBDB"/>
</svg>
