<svg width="23" height="20" viewBox="0 0 23 20" fill="none" xmlns="http://www.w3.org/2000/svg">
<path d="M22.5863 2.93627C22.4876 2.83763 22.4876 2.83763 22.389 2.739C22.5863 2.34446 22.6849 1.94992 22.7835 1.55539C22.8822 1.25948 22.6849 0.864947 22.389 0.667679C22.0931 0.47041 21.6986 0.47041 21.4027 0.667679C20.8109 1.06222 20.1204 1.35812 19.43 1.45675C17.7532 -0.121396 15.2873 -0.417299 13.216 0.569044C11.0461 1.65402 9.96109 4.11988 10.5529 6.4871C10.6515 6.98027 11.1447 7.27618 11.6379 7.17754C12.131 7.07891 12.4269 6.58574 12.3283 6.09257C11.9338 4.51442 12.6242 2.93627 14.1037 2.14719C15.5832 1.35812 17.4573 1.75266 18.5423 3.0349C18.7395 3.23217 19.0354 3.3308 19.3313 3.23217H19.5286C19.2327 3.62671 19.2327 4.11988 19.5286 4.51442C19.6272 4.61305 19.7259 4.61305 19.8245 4.71168C19.6272 4.90895 19.43 5.20486 19.5286 5.50076C19.8245 9.24886 18.2464 12.997 15.2873 15.3642C12.2297 18.0273 7.9884 18.7178 4.2403 17.3369C5.71981 17.041 7.10069 16.4492 8.18567 15.4628C8.38294 15.1669 8.48157 14.871 8.2843 14.4765C8.08704 14.1806 7.79113 13.9833 7.49523 13.9833C6.50889 13.9833 5.52254 13.4901 4.8321 12.7997C5.12801 12.7011 5.42391 12.6024 5.71981 12.5038C6.01572 12.3065 6.21299 12.0106 6.21299 11.6161C6.21299 11.2215 5.91708 10.9256 5.52254 10.9256C4.33893 10.6297 3.35259 9.84067 2.85942 8.75569C3.05669 8.75569 3.25396 8.75569 3.54986 8.85433C3.9444 8.85433 4.2403 8.65706 4.43757 8.36115C4.5362 7.96662 4.43757 7.57208 4.14166 7.37481C2.66215 6.09256 2.36625 4.61305 2.56352 3.62671C4.2403 5.40212 6.31162 6.58574 8.67884 7.07891C9.17201 7.17754 9.66518 6.88164 9.76382 6.38847C9.86245 5.8953 9.56655 5.40212 9.07338 5.30349C6.70616 4.71168 4.63484 3.42944 3.15532 1.45675C2.95805 1.25948 2.76078 1.16085 2.46488 1.16085C2.16898 1.16085 1.97171 1.25948 1.77444 1.45675C0.59083 2.93627 0.492195 5.10622 1.47854 6.68437H1.3799C1.084 6.783 0.985366 7.07891 0.886732 7.37481C0.886732 8.85433 1.47854 10.3338 2.56352 11.3202C2.36625 11.5175 2.26761 11.912 2.36625 12.2079C2.85942 13.5888 3.84576 14.6737 5.12801 15.3642C3.74713 15.8574 2.26761 16.1533 0.886732 16.1533C0.39356 16.1533 -0.000976562 16.5478 -0.000976562 17.041C-0.000976562 17.3369 0.196292 17.6328 0.39356 17.83C2.66215 19.2109 5.22664 20 7.79113 20C10.8488 20 13.8078 18.8164 16.175 16.8437C19.43 14.1806 21.304 10.2352 21.1068 5.99393C21.7972 5.50076 22.2904 4.81032 22.4876 4.02124C22.8822 3.42944 22.7835 3.13354 22.5863 2.93627Z" fill="white"/>
</svg>
